<svg width="19" height="19" viewBox="0 0 19 19" fill="none" xmlns="http://www.w3.org/2000/svg">
<path d="M13.0421 4.28144L14.7188 5.9574L13.0421 4.28144ZM14.1203 2.80498L9.58645 7.33886C9.35219 7.57279 9.19242 7.87084 9.12729 8.19544L8.7085 10.2918L10.8048 9.87219C11.1294 9.80727 11.4271 9.64815 11.6614 9.41382L16.1953 4.87994C16.3315 4.7437 16.4396 4.58195 16.5133 4.40394C16.5871 4.22593 16.625 4.03514 16.625 3.84246C16.625 3.64978 16.5871 3.45899 16.5133 3.28098C16.4396 3.10297 16.3315 2.94123 16.1953 2.80498C16.059 2.66874 15.8973 2.56066 15.7193 2.48693C15.5413 2.41319 15.3505 2.37524 15.1578 2.37524C14.9651 2.37524 14.7743 2.41319 14.5963 2.48693C14.4183 2.56066 14.2566 2.66874 14.1203 2.80498V2.80498Z" stroke="white" stroke-width="1.58333" stroke-linecap="round" stroke-linejoin="round"/>
<path d="M15.0417 11.8752V14.2502C15.0417 14.6701 14.8749 15.0728 14.578 15.3697C14.2811 15.6667 13.8783 15.8335 13.4584 15.8335H4.75008C4.33016 15.8335 3.92743 15.6667 3.6305 15.3697C3.33356 15.0728 3.16675 14.6701 3.16675 14.2502V5.54183C3.16675 5.1219 3.33356 4.71918 3.6305 4.42224C3.92743 4.12531 4.33016 3.9585 4.75008 3.9585H7.12508" stroke="white" stroke-width="1.58333" stroke-linecap="round" stroke-linejoin="round"/>
</svg>
